<svg width="84" height="82" viewBox="0 0 84 82" fill="none" xmlns="http://www.w3.org/2000/svg">
<path d="M77.2091 9.54767L64.1176 26.6241C65.6583 27.8215 66.8538 27.7531 68.8547 27.9243C72.5312 28.5851 73.7264 29.4871 75.6588 31.2183C77.9459 33.4861 78.6612 34.7806 79.3624 37.1127C80.0456 40.1503 80.3269 41.7062 80.6543 44.2206C81.0968 47.8383 81.1333 49.7068 80.6543 52.6288C80.3175 56.6013 79.7877 58.4085 78.5011 61.2104C77.3741 63.5123 76.4962 64.8631 73.8501 67.5382C72.0732 68.5432 71.0693 69.1085 69.1992 70.1386C69.8439 67.3772 70.0496 65.7354 70.0605 62.5973C69.7573 60.0861 69.3289 58.6501 67.8211 56.0094C65.5772 54.1515 64.2376 53.414 61.706 52.6288C57.6669 51.8792 55.7238 52.3032 52.4903 53.669C49.336 55.5195 48.1599 56.8191 46.6336 59.39C45.6928 62.4275 45.4056 64.0248 45.9445 66.4113C46.8945 69.3886 47.7717 70.848 50.0787 72.9992C53.0192 74.7396 54.6036 75.57 57.0551 76.2064C53.4523 77.369 51.3374 78.0025 45.4278 78.7202C41.4886 79.0225 39.2236 79.1579 34.0588 78.7202C29.5057 78.195 26.8283 77.6712 22.0008 76.6398C18.2886 75.4672 16.2022 74.799 12.4406 73.5193C8.8952 72.4567 7.0835 71.631 4 69.9653L6.66998 65.8045C8.35587 62.8788 8.93339 61.221 9.94286 58.2632C11.1019 54.594 11.6475 52.429 12.4406 48.3814C13.3531 41.0362 13.9964 37.0874 16.058 31.2183C19.4603 24.5833 21.704 21.5618 26.5656 17.9559C33.9306 13.6495 38.6628 12.9418 48.0977 14.4886C54.135 15.9149 57.0747 18.1657 61.6199 24.457L67.9934 4L77.2091 9.54767Z" stroke="white" stroke-width="5"/>
</svg>
